<svg xmlns="http://www.w3.org/2000/svg" xmlns:xlink="http://www.w3.org/1999/xlink" xmlns:serif="http://www.serif.com/" viewBox="0 0 100 125" version="1.1" xml:space="preserve" style="" x="0px" y="0px" fill-rule="evenodd" clip-rule="evenodd"><g><circle fill="#e6e6e6" cx="5.561" cy="31.821" r="0.561"/><circle fill="#e6e6e6" cx="7.581" cy="31.821" r="0.561"/><circle fill="#e6e6e6" cx="9.601" cy="31.821" r="0.561"/><circle fill="#e6e6e6" cx="11.622" cy="31.821" r="0.561"/><circle fill="#e6e6e6" cx="35.86" cy="31.821" r="0.561"/><circle fill="#e6e6e6" cx="37.881" cy="31.821" r="0.561"/><circle fill="#e6e6e6" cx="39.901" cy="31.821" r="0.561"/><circle fill="#e6e6e6" cx="41.92" cy="31.821" r="0.561"/><circle fill="#e6e6e6" cx="43.94" cy="31.821" r="0.561"/><circle fill="#e6e6e6" cx="45.96" cy="31.821" r="0.561"/><circle fill="#e6e6e6" cx="47.98" cy="31.821" r="0.561"/><circle fill="#e6e6e6" cx="7.581" cy="33.841" r="0.561"/><circle fill="#e6e6e6" cx="9.601" cy="33.841" r="0.561"/><circle fill="#e6e6e6" cx="11.622" cy="33.841" r="0.561"/><circle fill="#e6e6e6" cx="13.641" cy="33.841" r="0.561"/><circle fill="#e6e6e6" cx="33.84" cy="33.841" r="0.561"/><circle fill="#e6e6e6" cx="35.86" cy="33.841" r="0.561"/><circle fill="#e6e6e6" cx="37.881" cy="33.841" r="0.561"/><circle fill="#e6e6e6" cx="39.901" cy="33.841" r="0.561"/><circle fill="#e6e6e6" cx="41.92" cy="33.841" r="0.561"/><circle fill="#e6e6e6" cx="43.94" cy="33.841" r="0.561"/><circle fill="#e6e6e6" cx="45.96" cy="33.841" r="0.561"/><circle fill="#e6e6e6" cx="47.98" cy="33.841" r="0.561"/><circle fill="#e6e6e6" cx="49.999" cy="33.841" r="0.561"/><circle fill="#e6e6e6" cx="52.02" cy="33.841" r="0.561"/><circle fill="#e6e6e6" cx="5.561" cy="35.86" r="0.561"/><circle fill="#e6e6e6" cx="7.581" cy="35.86" r="0.561"/><circle fill="#e6e6e6" cx="9.601" cy="35.86" r="0.561"/><circle fill="#e6e6e6" cx="11.622" cy="35.86" r="0.561"/><circle fill="#e6e6e6" cx="13.641" cy="35.86" r="0.561"/><circle fill="#e6e6e6" cx="15.661" cy="35.86" r="0.561"/><circle fill="#e6e6e6" cx="17.681" cy="35.86" r="0.561"/><circle fill="#e6e6e6" cx="19.701" cy="35.86" r="0.561"/><circle fill="#e6e6e6" cx="29.801" cy="35.86" r="0.561"/><circle fill="#e6e6e6" cx="31.82" cy="35.86" r="0.561"/><circle fill="#e6e6e6" cx="33.84" cy="35.86" r="0.561"/><circle fill="#e6e6e6" cx="35.86" cy="35.86" r="0.561"/><circle fill="#e6e6e6" cx="37.881" cy="35.86" r="0.561"/><circle fill="#e6e6e6" cx="39.901" cy="35.86" r="0.561"/><circle fill="#e6e6e6" cx="41.92" cy="35.86" r="0.561"/><circle fill="#e6e6e6" cx="43.94" cy="35.86" r="0.561"/><circle fill="#e6e6e6" cx="45.96" cy="35.86" r="0.561"/><circle fill="#e6e6e6" cx="47.98" cy="35.86" r="0.561"/><circle fill="#e6e6e6" cx="49.999" cy="35.86" r="0.561"/><circle fill="#e6e6e6" cx="52.02" cy="35.86" r="0.561"/><circle fill="#e6e6e6" cx="54.04" cy="35.86" r="0.561"/><circle fill="#e6e6e6" cx="56.06" cy="35.86" r="0.561"/><circle fill="#e6e6e6" cx="78.28" cy="35.86" r="0.561"/><circle fill="#e6e6e6" cx="80.299" cy="35.86" r="0.561"/><circle fill="#e6e6e6" cx="82.319" cy="35.86" r="0.561"/><circle fill="#e6e6e6" cx="84.339" cy="35.86" r="0.561"/><circle fill="#e6e6e6" cx="86.359" cy="35.86" r="0.561"/><circle fill="#e6e6e6" cx="5.561" cy="37.88" r="0.561"/><circle fill="#e6e6e6" cx="7.581" cy="37.88" r="0.561"/><circle fill="#e6e6e6" cx="9.601" cy="37.88" r="0.561"/><circle fill="#e6e6e6" cx="19.701" cy="37.88" r="0.561"/><circle fill="#e6e6e6" cx="21.72" cy="37.88" r="0.561"/><circle fill="#e6e6e6" cx="23.741" cy="37.88" r="0.561"/><circle fill="#e6e6e6" cx="25.761" cy="37.88" r="0.561"/><circle fill="#e6e6e6" cx="27.781" cy="37.88" r="0.561"/><circle fill="#e6e6e6" cx="29.801" cy="37.88" r="0.561"/><circle fill="#e6e6e6" cx="31.82" cy="37.88" r="0.561"/><circle fill="#e6e6e6" cx="33.84" cy="37.88" r="0.561"/><circle fill="#e6e6e6" cx="35.86" cy="37.88" r="0.561"/><circle fill="#e6e6e6" cx="37.881" cy="37.88" r="0.561"/><circle fill="#e6e6e6" cx="39.901" cy="37.88" r="0.561"/><circle fill="#e6e6e6" cx="41.92" cy="37.88" r="0.561"/><circle fill="#e6e6e6" cx="43.94" cy="37.88" r="0.561"/><circle fill="#e6e6e6" cx="45.96" cy="37.88" r="0.561"/><circle fill="#e6e6e6" cx="47.98" cy="37.88" r="0.561"/><circle fill="#e6e6e6" cx="49.999" cy="37.88" r="0.561"/><circle fill="#e6e6e6" cx="52.02" cy="37.88" r="0.561"/><circle fill="#e6e6e6" cx="54.04" cy="37.88" r="0.561"/><circle fill="#e6e6e6" cx="56.06" cy="37.88" r="0.561"/><circle fill="#e6e6e6" cx="58.08" cy="37.88" r="0.561"/><circle fill="#e6e6e6" cx="60.099" cy="37.88" r="0.561"/><circle fill="#e6e6e6" cx="62.119" cy="37.88" r="0.561"/><circle fill="#e6e6e6" cx="64.139" cy="37.88" r="0.561"/><circle fill="#e6e6e6" cx="66.16" cy="37.88" r="0.561"/><circle fill="#e6e6e6" cx="68.18" cy="37.88" r="0.561"/><circle fill="#e6e6e6" cx="70.199" cy="37.88" r="0.561"/><circle fill="#e6e6e6" cx="72.219" cy="37.88" r="0.561"/><circle fill="#e6e6e6" cx="74.239" cy="37.88" r="0.561"/><circle fill="#e6e6e6" cx="76.259" cy="37.88" r="0.561"/><circle fill="#e6e6e6" cx="78.28" cy="37.88" r="0.561"/><circle fill="#e6e6e6" cx="80.299" cy="37.88" r="0.561"/><circle fill="#e6e6e6" cx="82.319" cy="37.88" r="0.561"/><circle fill="#e6e6e6" cx="84.339" cy="37.88" r="0.561"/><circle fill="#e6e6e6" cx="86.359" cy="37.88" r="0.561"/><circle fill="#e6e6e6" cx="88.378" cy="37.88" r="0.561"/><circle fill="#e6e6e6" cx="5.561" cy="39.9" r="0.561"/><circle fill="#e6e6e6" cx="7.581" cy="39.9" r="0.561"/><circle fill="#e6e6e6" cx="17.681" cy="39.9" r="0.561"/><circle fill="#e6e6e6" cx="19.701" cy="39.9" r="0.561"/><circle fill="#e6e6e6" cx="21.72" cy="39.9" r="0.561"/><circle fill="#e6e6e6" cx="23.741" cy="39.9" r="0.561"/><circle fill="#e6e6e6" cx="25.761" cy="39.9" r="0.561"/><circle fill="#e6e6e6" cx="27.781" cy="39.9" r="0.561"/><circle fill="#e6e6e6" cx="29.801" cy="39.9" r="0.561"/><circle fill="#e6e6e6" cx="31.82" cy="39.9" r="0.561"/><circle fill="#e6e6e6" cx="33.84" cy="39.9" r="0.561"/><circle fill="#e6e6e6" cx="35.86" cy="39.9" r="0.561"/><circle fill="#e6e6e6" cx="37.881" cy="39.9" r="0.561"/><circle fill="#e6e6e6" cx="39.901" cy="39.9" r="0.561"/><circle fill="#e6e6e6" cx="41.92" cy="39.9" r="0.561"/><circle fill="#e6e6e6" cx="43.94" cy="39.9" r="0.561"/><circle fill="#e6e6e6" cx="45.96" cy="39.9" r="0.561"/><circle fill="#e6e6e6" cx="47.98" cy="39.9" r="0.561"/><circle fill="#e6e6e6" cx="49.999" cy="39.9" r="0.561"/><circle fill="#e6e6e6" cx="52.02" cy="39.9" r="0.561"/><circle fill="#e6e6e6" cx="54.04" cy="39.9" r="0.561"/><circle fill="#e6e6e6" cx="56.06" cy="39.9" r="0.561"/><circle fill="#e6e6e6" cx="58.08" cy="39.9" r="0.561"/><circle fill="#e6e6e6" cx="60.099" cy="39.9" r="0.561"/><circle fill="#e6e6e6" cx="62.119" cy="39.9" r="0.561"/><circle fill="#e6e6e6" cx="64.139" cy="39.9" r="0.561"/><circle fill="#e6e6e6" cx="66.16" cy="39.9" r="0.561"/><circle fill="#e6e6e6" cx="68.18" cy="39.9" r="0.561"/><circle fill="#e6e6e6" cx="70.199" cy="39.9" r="0.561"/><circle fill="#e6e6e6" cx="72.219" cy="39.9" r="0.561"/><circle fill="#e6e6e6" cx="74.239" cy="39.9" r="0.561"/><circle fill="#e6e6e6" cx="76.259" cy="39.9" r="0.561"/><circle fill="#e6e6e6" cx="78.28" cy="39.9" r="0.561"/><circle fill="#e6e6e6" cx="80.299" cy="39.9" r="0.561"/><circle fill="#e6e6e6" cx="82.319" cy="39.9" r="0.561"/><circle fill="#e6e6e6" cx="84.339" cy="39.9" r="0.561"/><circle fill="#e6e6e6" cx="86.359" cy="39.9" r="0.561"/><circle fill="#e6e6e6" cx="88.378" cy="39.9" r="0.561"/><circle fill="#e6e6e6" cx="5.561" cy="41.92" r="0.561"/><circle fill="#e6e6e6" cx="7.581" cy="41.92" r="0.561"/><circle fill="#e6e6e6" cx="9.601" cy="41.92" r="0.561"/><circle fill="#e6e6e6" cx="11.622" cy="41.92" r="0.561"/><circle fill="#e6e6e6" cx="13.641" cy="41.92" r="0.561"/><circle fill="#e6e6e6" cx="15.661" cy="41.92" r="0.561"/><circle fill="#e6e6e6" cx="17.681" cy="41.92" r="0.561"/><circle fill="#e6e6e6" cx="19.701" cy="41.92" r="0.561"/><circle fill="#e6e6e6" cx="21.72" cy="41.92" r="0.561"/><circle fill="#e6e6e6" cx="23.741" cy="41.92" r="0.561"/><circle fill="#e6e6e6" cx="25.761" cy="41.92" r="0.561"/><circle fill="#e6e6e6" cx="27.781" cy="41.92" r="0.561"/><circle fill="#e6e6e6" cx="29.801" cy="41.92" r="0.561"/><circle fill="#e6e6e6" cx="31.82" cy="41.92" r="0.561"/><circle fill="#e6e6e6" cx="33.84" cy="41.92" r="0.561"/><circle fill="#e6e6e6" cx="35.86" cy="41.92" r="0.561"/><circle fill="#e6e6e6" cx="37.881" cy="41.92" r="0.561"/><circle fill="#e6e6e6" cx="39.901" cy="41.92" r="0.561"/><circle fill="#e6e6e6" cx="41.92" cy="41.92" r="0.561"/><circle fill="#e6e6e6" cx="43.94" cy="41.92" r="0.561"/><circle fill="#e6e6e6" cx="45.96" cy="41.92" r="0.561"/><circle fill="#e6e6e6" cx="47.98" cy="41.92" r="0.561"/><circle fill="#e6e6e6" cx="49.999" cy="41.92" r="0.561"/><circle fill="#e6e6e6" cx="52.02" cy="41.92" r="0.561"/><circle fill="#e6e6e6" cx="54.04" cy="41.92" r="0.561"/><circle fill="#e6e6e6" cx="56.06" cy="41.92" r="0.561"/><circle fill="#e6e6e6" cx="58.08" cy="41.92" r="0.561"/><circle fill="#e6e6e6" cx="60.099" cy="41.92" r="0.561"/><circle fill="#e6e6e6" cx="62.119" cy="41.92" r="0.561"/><circle fill="#e6e6e6" cx="64.139" cy="41.92" r="0.561"/><circle fill="#e6e6e6" cx="66.16" cy="41.92" r="0.561"/><circle fill="#e6e6e6" cx="68.18" cy="41.92" r="0.561"/><circle fill="#e6e6e6" cx="70.199" cy="41.92" r="0.561"/><circle fill="#e6e6e6" cx="72.219" cy="41.92" r="0.561"/><circle fill="#e6e6e6" cx="74.239" cy="41.92" r="0.561"/><circle fill="#e6e6e6" cx="76.259" cy="41.92" r="0.561"/><circle fill="#e6e6e6" cx="78.28" cy="41.92" r="0.561"/><circle fill="#e6e6e6" cx="80.299" cy="41.92" r="0.561"/><circle fill="#e6e6e6" cx="82.319" cy="41.92" r="0.561"/><circle fill="#e6e6e6" cx="84.339" cy="41.92" r="0.561"/><circle fill="#e6e6e6" cx="86.359" cy="41.92" r="0.561"/><circle fill="#e6e6e6" cx="88.378" cy="41.92" r="0.561"/><circle fill="#e6e6e6" cx="5.561" cy="43.941" r="0.561"/><circle fill="#e6e6e6" cx="7.581" cy="43.941" r="0.561"/><circle fill="#e6e6e6" cx="9.601" cy="43.941" r="0.561"/><circle fill="#e6e6e6" cx="11.622" cy="43.941" r="0.561"/><circle fill="#e6e6e6" cx="13.641" cy="43.941" r="0.561"/><circle fill="#e6e6e6" cx="15.661" cy="43.941" r="0.561"/><circle fill="#e6e6e6" cx="17.681" cy="43.941" r="0.561"/><circle fill="#e6e6e6" cx="19.701" cy="43.941" r="0.561"/><circle fill="#e6e6e6" cx="21.72" cy="43.941" r="0.561"/><circle fill="#e6e6e6" cx="23.741" cy="43.941" r="0.561"/><circle fill="#e6e6e6" cx="25.761" cy="43.941" r="0.561"/><circle fill="#e6e6e6" cx="27.781" cy="43.941" r="0.561"/><circle fill="#e6e6e6" cx="29.801" cy="43.941" r="0.561"/><circle fill="#e6e6e6" cx="31.82" cy="43.941" r="0.561"/><circle fill="#e6e6e6" cx="33.84" cy="43.941" r="0.561"/><circle fill="#e6e6e6" cx="35.86" cy="43.941" r="0.561"/><circle fill="#e6e6e6" cx="37.881" cy="43.941" r="0.561"/><circle fill="#e6e6e6" cx="39.901" cy="43.941" r="0.561"/><circle fill="#e6e6e6" cx="41.92" cy="43.941" r="0.561"/><circle fill="#e6e6e6" cx="43.94" cy="43.941" r="0.561"/><circle fill="#e6e6e6" cx="45.96" cy="43.941" r="0.561"/><circle fill="#e6e6e6" cx="47.98" cy="43.941" r="0.561"/><circle fill="#e6e6e6" cx="49.999" cy="43.941" r="0.561"/><circle fill="#e6e6e6" cx="52.02" cy="43.941" r="0.561"/><circle fill="#e6e6e6" cx="54.04" cy="43.941" r="0.561"/><circle fill="#e6e6e6" cx="56.06" cy="43.941" r="0.561"/><circle fill="#e6e6e6" cx="58.08" cy="43.941" r="0.561"/><circle fill="#e6e6e6" cx="60.099" cy="43.941" r="0.561"/><circle fill="#e6e6e6" cx="62.119" cy="43.941" r="0.561"/><circle fill="#e6e6e6" cx="64.139" cy="43.941" r="0.561"/><circle fill="#e6e6e6" cx="66.16" cy="43.941" r="0.561"/><circle fill="#e6e6e6" cx="68.18" cy="43.941" r="0.561"/><circle fill="#e6e6e6" cx="70.199" cy="43.941" r="0.561"/><circle fill="#e6e6e6" cx="72.219" cy="43.941" r="0.561"/><circle fill="#e6e6e6" cx="74.239" cy="43.941" r="0.561"/><circle fill="#e6e6e6" cx="76.259" cy="43.941" r="0.561"/><circle fill="#e6e6e6" cx="78.28" cy="43.941" r="0.561"/><circle fill="#e6e6e6" cx="80.299" cy="43.941" r="0.561"/><circle fill="#e6e6e6" cx="82.319" cy="43.941" r="0.561"/><circle fill="#e6e6e6" cx="84.339" cy="43.941" r="0.561"/><circle fill="#e6e6e6" cx="86.359" cy="43.941" r="0.561"/><circle fill="#e6e6e6" cx="88.378" cy="43.941" r="0.561"/><circle fill="#e6e6e6" cx="90.398" cy="43.941" r="0.561"/><circle fill="#e6e6e6" cx="92.419" cy="43.941" r="0.561"/><circle fill="#e6e6e6" cx="5.561" cy="45.96" r="0.561"/><circle fill="#e6e6e6" cx="7.581" cy="45.96" r="0.561"/><circle fill="#e6e6e6" cx="9.601" cy="45.96" r="0.561"/><circle fill="#e6e6e6" cx="11.622" cy="45.96" r="0.561"/><circle fill="#e6e6e6" cx="13.641" cy="45.96" r="0.561"/><circle fill="#e6e6e6" cx="15.661" cy="45.96" r="0.561"/><circle fill="#e6e6e6" cx="17.681" cy="45.96" r="0.561"/><circle fill="#e6e6e6" cx="19.701" cy="45.96" r="0.561"/><circle fill="#e6e6e6" cx="21.72" cy="45.96" r="0.561"/><circle fill="#e6e6e6" cx="23.741" cy="45.96" r="0.561"/><circle fill="#e6e6e6" cx="25.761" cy="45.96" r="0.561"/><circle fill="#e6e6e6" cx="27.781" cy="45.96" r="0.561"/><circle fill="#e6e6e6" cx="29.801" cy="45.96" r="0.561"/><circle fill="#e6e6e6" cx="31.82" cy="45.96" r="0.561"/><circle fill="#e6e6e6" cx="33.84" cy="45.96" r="0.561"/><circle fill="#e6e6e6" cx="35.86" cy="45.96" r="0.561"/><circle fill="#e6e6e6" cx="37.881" cy="45.96" r="0.561"/><circle fill="#e6e6e6" cx="39.901" cy="45.96" r="0.561"/><circle fill="#e6e6e6" cx="41.92" cy="45.96" r="0.561"/><circle fill="#e6e6e6" cx="43.94" cy="45.96" r="0.561"/><circle fill="#e6e6e6" cx="45.96" cy="45.96" r="0.561"/><circle fill="#e6e6e6" cx="47.98" cy="45.96" r="0.561"/><circle fill="#e6e6e6" cx="49.999" cy="45.96" r="0.561"/><circle fill="#e6e6e6" cx="52.02" cy="45.96" r="0.561"/><circle fill="#e6e6e6" cx="54.04" cy="45.96" r="0.561"/><circle fill="#e6e6e6" cx="56.06" cy="45.96" r="0.561"/><circle fill="#e6e6e6" cx="58.08" cy="45.96" r="0.561"/><circle fill="#e6e6e6" cx="60.099" cy="45.96" r="0.561"/><circle fill="#e6e6e6" cx="62.119" cy="45.96" r="0.561"/><circle fill="#e6e6e6" cx="64.139" cy="45.96" r="0.561"/><circle fill="#e6e6e6" cx="66.16" cy="45.96" r="0.561"/><circle fill="#e6e6e6" cx="68.18" cy="45.96" r="0.561"/><circle fill="#e6e6e6" cx="70.199" cy="45.96" r="0.561"/><circle fill="#e6e6e6" cx="72.219" cy="45.96" r="0.561"/><circle fill="#e6e6e6" cx="74.239" cy="45.96" r="0.561"/><circle fill="#e6e6e6" cx="76.259" cy="45.96" r="0.561"/><circle fill="#e6e6e6" cx="78.28" cy="45.96" r="0.561"/><circle fill="#e6e6e6" cx="80.299" cy="45.96" r="0.561"/><circle fill="#e6e6e6" cx="82.319" cy="45.96" r="0.561"/><circle fill="#e6e6e6" cx="84.339" cy="45.96" r="0.561"/><circle fill="#e6e6e6" cx="86.359" cy="45.96" r="0.561"/><circle fill="#e6e6e6" cx="88.378" cy="45.96" r="0.561"/><circle fill="#e6e6e6" cx="90.398" cy="45.96" r="0.561"/><circle fill="#e6e6e6" cx="92.419" cy="45.96" r="0.561"/><circle fill="#e6e6e6" cx="7.581" cy="47.98" r="0.561"/><circle fill="#e6e6e6" cx="9.601" cy="47.98" r="0.561"/><circle fill="#e6e6e6" cx="11.622" cy="47.98" r="0.561"/><circle fill="#e6e6e6" cx="13.641" cy="47.98" r="0.561"/><circle fill="#e6e6e6" cx="15.661" cy="47.98" r="0.561"/><circle fill="#e6e6e6" cx="17.681" cy="47.98" r="0.561"/><circle fill="#e6e6e6" cx="19.701" cy="47.98" r="0.561"/><circle fill="#e6e6e6" cx="21.72" cy="47.98" r="0.561"/><circle fill="#e6e6e6" cx="23.741" cy="47.98" r="0.561"/><circle fill="#e6e6e6" cx="25.761" cy="47.98" r="0.561"/><circle fill="#e6e6e6" cx="27.781" cy="47.98" r="0.561"/><circle fill="#e6e6e6" cx="29.801" cy="47.98" r="0.561"/><circle fill="#e6e6e6" cx="31.82" cy="47.98" r="0.561"/><circle fill="#e6e6e6" cx="33.84" cy="47.98" r="0.561"/><circle fill="#e6e6e6" cx="35.86" cy="47.98" r="0.561"/><circle fill="#e6e6e6" cx="37.881" cy="47.98" r="0.561"/><circle fill="#e6e6e6" cx="39.901" cy="47.98" r="0.561"/><circle fill="#e6e6e6" cx="41.92" cy="47.98" r="0.561"/><circle fill="#e6e6e6" cx="43.94" cy="47.98" r="0.561"/><circle fill="#e6e6e6" cx="45.96" cy="47.98" r="0.561"/><circle fill="#e6e6e6" cx="47.98" cy="47.98" r="0.561"/><circle fill="#e6e6e6" cx="49.999" cy="47.98" r="0.561"/><circle fill="#e6e6e6" cx="52.02" cy="47.98" r="0.561"/><circle fill="#e6e6e6" cx="54.04" cy="47.98" r="0.561"/><circle fill="#e6e6e6" cx="56.06" cy="47.98" r="0.561"/><circle fill="#e6e6e6" cx="58.08" cy="47.98" r="0.561"/><circle fill="#e6e6e6" cx="60.099" cy="47.98" r="0.561"/><circle fill="#e6e6e6" cx="62.119" cy="47.98" r="0.561"/><circle fill="#e6e6e6" cx="64.139" cy="47.98" r="0.561"/><circle fill="#e6e6e6" cx="66.16" cy="47.98" r="0.561"/><circle fill="#e6e6e6" cx="68.18" cy="47.98" r="0.561"/><circle fill="#e6e6e6" cx="70.199" cy="47.98" r="0.561"/><circle fill="#e6e6e6" cx="72.219" cy="47.98" r="0.561"/><circle fill="#e6e6e6" cx="74.239" cy="47.98" r="0.561"/><circle fill="#e6e6e6" cx="76.259" cy="47.98" r="0.561"/><circle fill="#e6e6e6" cx="78.28" cy="47.98" r="0.561"/><circle fill="#e6e6e6" cx="80.299" cy="47.98" r="0.561"/><circle fill="#e6e6e6" cx="82.319" cy="47.98" r="0.561"/><circle fill="#e6e6e6" cx="84.339" cy="47.98" r="0.561"/><circle fill="#e6e6e6" cx="86.359" cy="47.98" r="0.561"/><circle fill="#e6e6e6" cx="88.378" cy="47.98" r="0.561"/><circle fill="#e6e6e6" cx="90.398" cy="47.98" r="0.561"/><circle fill="#e6e6e6" cx="7.581" cy="50" r="0.561"/><circle fill="#e6e6e6" cx="9.601" cy="50" r="0.561"/><circle fill="#e6e6e6" cx="11.622" cy="50" r="0.561"/><circle fill="#e6e6e6" cx="13.641" cy="50" r="0.561"/><circle fill="#e6e6e6" cx="15.661" cy="50" r="0.561"/><circle fill="#e6e6e6" cx="17.681" cy="50" r="0.561"/><circle fill="#e6e6e6" cx="19.701" cy="50" r="0.561"/><circle fill="#e6e6e6" cx="21.72" cy="50" r="0.561"/><circle fill="#e6e6e6" cx="23.741" cy="50" r="0.561"/><circle fill="#e6e6e6" cx="25.761" cy="50" r="0.561"/><circle fill="#e6e6e6" cx="27.781" cy="50" r="0.561"/><circle fill="#e6e6e6" cx="29.801" cy="50" r="0.561"/><circle fill="#e6e6e6" cx="31.82" cy="50" r="0.561"/><circle fill="#e6e6e6" cx="33.84" cy="50" r="0.561"/><circle fill="#e6e6e6" cx="35.86" cy="50" r="0.561"/><circle fill="#e6e6e6" cx="37.881" cy="50" r="0.561"/><circle fill="#e6e6e6" cx="39.901" cy="50" r="0.561"/><circle fill="#e6e6e6" cx="41.92" cy="50" r="0.561"/><circle fill="#e6e6e6" cx="43.94" cy="50" r="0.561"/><circle fill="#e6e6e6" cx="45.96" cy="50" r="0.561"/><circle fill="#e6e6e6" cx="47.98" cy="50" r="0.561"/><circle fill="#e6e6e6" cx="49.999" cy="50" r="0.561"/><circle fill="#e6e6e6" cx="52.02" cy="50" r="0.561"/><circle fill="#e6e6e6" cx="54.04" cy="50" r="0.561"/><circle fill="#e6e6e6" cx="56.06" cy="50" r="0.561"/><circle fill="#e6e6e6" cx="58.08" cy="50" r="0.561"/><circle fill="#e6e6e6" cx="60.099" cy="50" r="0.561"/><circle fill="#e6e6e6" cx="62.119" cy="50" r="0.561"/><circle fill="#e6e6e6" cx="64.139" cy="50" r="0.561"/><circle fill="#e6e6e6" cx="66.16" cy="50" r="0.561"/><circle fill="#e6e6e6" cx="68.18" cy="50" r="0.561"/><circle fill="#e6e6e6" cx="70.199" cy="50" r="0.561"/><circle fill="#e6e6e6" cx="72.219" cy="50" r="0.561"/><circle fill="#e6e6e6" cx="74.239" cy="50" r="0.561"/><circle fill="#e6e6e6" cx="76.259" cy="50" r="0.561"/><circle fill="#e6e6e6" cx="78.28" cy="50" r="0.561"/><circle fill="#e6e6e6" cx="80.299" cy="50" r="0.561"/><circle fill="#e6e6e6" cx="82.319" cy="50" r="0.561"/><circle fill="#e6e6e6" cx="84.339" cy="50" r="0.561"/><circle fill="#e6e6e6" cx="86.359" cy="50" r="0.561"/><circle fill="#e6e6e6" cx="88.378" cy="50" r="0.561"/><circle fill="#e6e6e6" cx="90.398" cy="50" r="0.561"/><circle fill="#e6e6e6" cx="92.419" cy="50" r="0.561"/><circle fill="#e6e6e6" cx="7.581" cy="52.02" r="0.561"/><circle fill="#e6e6e6" cx="9.601" cy="52.02" r="0.561"/><circle fill="#e6e6e6" cx="11.622" cy="52.02" r="0.561"/><circle fill="#e6e6e6" cx="13.641" cy="52.02" r="0.561"/><circle fill="#e6e6e6" cx="15.661" cy="52.02" r="0.561"/><circle fill="#e6e6e6" cx="17.681" cy="52.02" r="0.561"/><circle fill="#e6e6e6" cx="19.701" cy="52.02" r="0.561"/><circle fill="#e6e6e6" cx="21.72" cy="52.02" r="0.561"/><circle fill="#e6e6e6" cx="23.741" cy="52.02" r="0.561"/><circle fill="#e6e6e6" cx="25.761" cy="52.02" r="0.561"/><circle fill="#e6e6e6" cx="27.781" cy="52.02" r="0.561"/><circle fill="#e6e6e6" cx="29.801" cy="52.02" r="0.561"/><circle fill="#e6e6e6" cx="31.82" cy="52.02" r="0.561"/><circle fill="#e6e6e6" cx="33.84" cy="52.02" r="0.561"/><circle fill="#e6e6e6" cx="35.86" cy="52.02" r="0.561"/><circle fill="#e6e6e6" cx="37.881" cy="52.02" r="0.561"/><circle fill="#e6e6e6" cx="39.901" cy="52.02" r="0.561"/><circle fill="#e6e6e6" cx="41.92" cy="52.02" r="0.561"/><circle fill="#e6e6e6" cx="43.94" cy="52.02" r="0.561"/><circle fill="#e6e6e6" cx="45.96" cy="52.02" r="0.561"/><circle fill="#e6e6e6" cx="47.98" cy="52.02" r="0.561"/><circle fill="#e6e6e6" cx="49.999" cy="52.02" r="0.561"/><circle fill="#e6e6e6" cx="52.02" cy="52.02" r="0.561"/><circle fill="#e6e6e6" cx="54.04" cy="52.02" r="0.561"/><circle fill="#e6e6e6" cx="56.06" cy="52.02" r="0.561"/><circle fill="#e6e6e6" cx="58.08" cy="52.02" r="0.561"/><circle fill="#e6e6e6" cx="60.099" cy="52.02" r="0.561"/><circle fill="#e6e6e6" cx="62.119" cy="52.02" r="0.561"/><circle fill="#e6e6e6" cx="64.139" cy="52.02" r="0.561"/><circle fill="#e6e6e6" cx="66.16" cy="52.02" r="0.561"/><circle fill="#e6e6e6" cx="68.18" cy="52.02" r="0.561"/><circle fill="#e6e6e6" cx="70.199" cy="52.02" r="0.561"/><circle fill="#e6e6e6" cx="72.219" cy="52.02" r="0.561"/><circle fill="#e6e6e6" cx="74.239" cy="52.02" r="0.561"/><circle fill="#e6e6e6" cx="76.259" cy="52.02" r="0.561"/><circle fill="#e6e6e6" cx="78.28" cy="52.02" r="0.561"/><circle fill="#e6e6e6" cx="80.299" cy="52.02" r="0.561"/><circle fill="#e6e6e6" cx="82.319" cy="52.02" r="0.561"/><circle fill="#e6e6e6" cx="84.339" cy="52.02" r="0.561"/><circle fill="#e6e6e6" cx="86.359" cy="52.02" r="0.561"/><circle fill="#e6e6e6" cx="88.378" cy="52.02" r="0.561"/><circle fill="#e6e6e6" cx="90.398" cy="52.02" r="0.561"/><circle fill="#e6e6e6" cx="92.419" cy="52.02" r="0.561"/><circle fill="#e6e6e6" cx="5.561" cy="54.04" r="0.561"/><circle fill="#e6e6e6" cx="7.581" cy="54.04" r="0.561"/><circle fill="#e6e6e6" cx="9.601" cy="54.04" r="0.561"/><circle fill="#e6e6e6" cx="11.622" cy="54.04" r="0.561"/><circle fill="#e6e6e6" cx="13.641" cy="54.04" r="0.561"/><circle fill="#e6e6e6" cx="15.661" cy="54.04" r="0.561"/><circle fill="#e6e6e6" cx="17.681" cy="54.04" r="0.561"/><circle fill="#e6e6e6" cx="19.701" cy="54.04" r="0.561"/><circle fill="#e6e6e6" cx="21.72" cy="54.04" r="0.561"/><circle fill="#e6e6e6" cx="23.741" cy="54.04" r="0.561"/><circle fill="#e6e6e6" cx="25.761" cy="54.04" r="0.561"/><circle fill="#e6e6e6" cx="27.781" cy="54.04" r="0.561"/><circle fill="#e6e6e6" cx="29.801" cy="54.04" r="0.561"/><circle fill="#e6e6e6" cx="31.82" cy="54.04" r="0.561"/><circle fill="#e6e6e6" cx="33.84" cy="54.04" r="0.561"/><circle fill="#e6e6e6" cx="35.86" cy="54.04" r="0.561"/><circle fill="#e6e6e6" cx="37.881" cy="54.04" r="0.561"/><circle fill="#e6e6e6" cx="39.901" cy="54.04" r="0.561"/><circle fill="#e6e6e6" cx="41.92" cy="54.04" r="0.561"/><circle fill="#e6e6e6" cx="43.94" cy="54.04" r="0.561"/><circle fill="#e6e6e6" cx="45.96" cy="54.04" r="0.561"/><circle fill="#e6e6e6" cx="47.98" cy="54.04" r="0.561"/><circle fill="#e6e6e6" cx="49.999" cy="54.04" r="0.561"/><circle fill="#e6e6e6" cx="52.02" cy="54.04" r="0.561"/><circle fill="#e6e6e6" cx="54.04" cy="54.04" r="0.561"/><circle fill="#e6e6e6" cx="56.06" cy="54.04" r="0.561"/><circle fill="#e6e6e6" cx="58.08" cy="54.04" r="0.561"/><circle fill="#e6e6e6" cx="60.099" cy="54.04" r="0.561"/><circle fill="#e6e6e6" cx="62.119" cy="54.04" r="0.561"/><circle fill="#e6e6e6" cx="64.139" cy="54.04" r="0.561"/><circle fill="#e6e6e6" cx="66.16" cy="54.04" r="0.561"/><circle fill="#e6e6e6" cx="68.18" cy="54.04" r="0.561"/><circle fill="#e6e6e6" cx="70.199" cy="54.04" r="0.561"/><circle fill="#e6e6e6" cx="72.219" cy="54.04" r="0.561"/><circle fill="#e6e6e6" cx="74.239" cy="54.04" r="0.561"/><circle fill="#e6e6e6" cx="76.259" cy="54.04" r="0.561"/><circle fill="#e6e6e6" cx="78.28" cy="54.04" r="0.561"/><circle fill="#e6e6e6" cx="80.299" cy="54.04" r="0.561"/><circle fill="#e6e6e6" cx="82.319" cy="54.04" r="0.561"/><circle fill="#e6e6e6" cx="84.339" cy="54.04" r="0.561"/><circle fill="#e6e6e6" cx="86.359" cy="54.04" r="0.561"/><circle fill="#e6e6e6" cx="88.378" cy="54.04" r="0.561"/><circle fill="#e6e6e6" cx="90.398" cy="54.04" r="0.561"/><circle fill="#e6e6e6" cx="92.419" cy="54.04" r="0.561"/><circle fill="#e6e6e6" cx="7.581" cy="56.059" r="0.561"/><circle fill="#e6e6e6" cx="9.601" cy="56.059" r="0.561"/><circle fill="#e6e6e6" cx="11.622" cy="56.059" r="0.561"/><circle fill="#e6e6e6" cx="13.641" cy="56.059" r="0.561"/><circle fill="#e6e6e6" cx="15.661" cy="56.059" r="0.561"/><circle fill="#e6e6e6" cx="17.681" cy="56.059" r="0.561"/><circle fill="#e6e6e6" cx="19.701" cy="56.059" r="0.561"/><circle fill="#e6e6e6" cx="21.72" cy="56.059" r="0.561"/><circle fill="#e6e6e6" cx="23.741" cy="56.059" r="0.561"/><circle fill="#e6e6e6" cx="25.761" cy="56.059" r="0.561"/><circle fill="#e6e6e6" cx="27.781" cy="56.059" r="0.561"/><circle fill="#e6e6e6" cx="29.801" cy="56.059" r="0.561"/><circle fill="#e6e6e6" cx="31.82" cy="56.059" r="0.561"/><circle fill="#e6e6e6" cx="33.84" cy="56.059" r="0.561"/><circle fill="#e6e6e6" cx="35.86" cy="56.059" r="0.561"/><circle fill="#e6e6e6" cx="37.881" cy="56.059" r="0.561"/><circle fill="#e6e6e6" cx="39.901" cy="56.059" r="0.561"/><circle fill="#e6e6e6" cx="41.92" cy="56.059" r="0.561"/><circle fill="#e6e6e6" cx="43.94" cy="56.059" r="0.561"/><circle fill="#e6e6e6" cx="45.96" cy="56.059" r="0.561"/><circle fill="#e6e6e6" cx="47.98" cy="56.059" r="0.561"/><circle fill="#e6e6e6" cx="49.999" cy="56.059" r="0.561"/><circle fill="#e6e6e6" cx="52.02" cy="56.059" r="0.561"/><circle fill="#e6e6e6" cx="54.04" cy="56.059" r="0.561"/><circle fill="#e6e6e6" cx="56.06" cy="56.059" r="0.561"/><circle fill="#e6e6e6" cx="58.08" cy="56.059" r="0.561"/><circle fill="#e6e6e6" cx="60.099" cy="56.059" r="0.561"/><circle fill="#e6e6e6" cx="62.119" cy="56.059" r="0.561"/><circle fill="#e6e6e6" cx="64.139" cy="56.059" r="0.561"/><circle fill="#e6e6e6" cx="66.16" cy="56.059" r="0.561"/><circle fill="#e6e6e6" cx="68.18" cy="56.059" r="0.561"/><circle fill="#e6e6e6" cx="70.199" cy="56.059" r="0.561"/><circle fill="#e6e6e6" cx="72.219" cy="56.059" r="0.561"/><circle fill="#e6e6e6" cx="74.239" cy="56.059" r="0.561"/><circle fill="#e6e6e6" cx="76.259" cy="56.059" r="0.561"/><circle fill="#e6e6e6" cx="78.28" cy="56.059" r="0.561"/><circle fill="#e6e6e6" cx="80.299" cy="56.059" r="0.561"/><circle fill="#e6e6e6" cx="82.319" cy="56.059" r="0.561"/><circle fill="#e6e6e6" cx="84.339" cy="56.059" r="0.561"/><circle fill="#e6e6e6" cx="86.359" cy="56.059" r="0.561"/><circle fill="#e6e6e6" cx="88.378" cy="56.059" r="0.561"/><circle fill="#e6e6e6" cx="90.398" cy="56.059" r="0.561"/><circle fill="#e6e6e6" cx="92.419" cy="56.059" r="0.561"/><circle fill="#e6e6e6" cx="9.601" cy="58.08" r="0.561"/><circle fill="#e6e6e6" cx="11.622" cy="58.08" r="0.561"/><circle fill="#e6e6e6" cx="13.641" cy="58.08" r="0.561"/><circle fill="#e6e6e6" cx="15.661" cy="58.08" r="0.561"/><circle fill="#e6e6e6" cx="17.681" cy="58.08" r="0.561"/><circle fill="#e6e6e6" cx="19.701" cy="58.08" r="0.561"/><circle fill="#e6e6e6" cx="21.72" cy="58.08" r="0.561"/><circle fill="#e6e6e6" cx="23.741" cy="58.08" r="0.561"/><circle fill="#e6e6e6" cx="25.761" cy="58.08" r="0.561"/><circle fill="#e6e6e6" cx="27.781" cy="58.08" r="0.561"/><circle fill="#e6e6e6" cx="29.801" cy="58.08" r="0.561"/><circle fill="#e6e6e6" cx="31.82" cy="58.08" r="0.561"/><circle fill="#e6e6e6" cx="33.84" cy="58.08" r="0.561"/><circle fill="#e6e6e6" cx="35.86" cy="58.08" r="0.561"/><circle fill="#e6e6e6" cx="37.881" cy="58.08" r="0.561"/><circle fill="#e6e6e6" cx="39.901" cy="58.08" r="0.561"/><circle fill="#e6e6e6" cx="41.92" cy="58.08" r="0.561"/><circle fill="#e6e6e6" cx="43.94" cy="58.08" r="0.561"/><circle fill="#e6e6e6" cx="45.96" cy="58.08" r="0.561"/><circle fill="#e6e6e6" cx="47.98" cy="58.08" r="0.561"/><circle fill="#e6e6e6" cx="49.999" cy="58.08" r="0.561"/><circle fill="#e6e6e6" cx="52.02" cy="58.08" r="0.561"/><circle fill="#e6e6e6" cx="54.04" cy="58.08" r="0.561"/><circle fill="#e6e6e6" cx="56.06" cy="58.08" r="0.561"/><circle fill="#e6e6e6" cx="58.08" cy="58.08" r="0.561"/><circle fill="#e6e6e6" cx="60.099" cy="58.08" r="0.561"/><circle fill="#e6e6e6" cx="62.119" cy="58.08" r="0.561"/><circle fill="#e6e6e6" cx="64.139" cy="58.08" r="0.561"/><circle fill="#e6e6e6" cx="66.16" cy="58.08" r="0.561"/><circle fill="#e6e6e6" cx="68.18" cy="58.08" r="0.561"/><circle fill="#e6e6e6" cx="70.199" cy="58.08" r="0.561"/><circle fill="#e6e6e6" cx="72.219" cy="58.08" r="0.561"/><circle fill="#e6e6e6" cx="74.239" cy="58.08" r="0.561"/><circle fill="#e6e6e6" cx="76.259" cy="58.08" r="0.561"/><circle fill="#e6e6e6" cx="78.28" cy="58.08" r="0.561"/><circle fill="#e6e6e6" cx="80.299" cy="58.08" r="0.561"/><circle fill="#e6e6e6" cx="82.319" cy="58.08" r="0.561"/><circle fill="#e6e6e6" cx="84.339" cy="58.08" r="0.561"/><circle fill="#e6e6e6" cx="86.359" cy="58.08" r="0.561"/><circle fill="#e6e6e6" cx="88.378" cy="58.08" r="0.561"/><circle fill="#e6e6e6" cx="90.398" cy="58.08" r="0.561"/><circle fill="#e6e6e6" cx="92.419" cy="58.08" r="0.561"/><circle fill="#e6e6e6" cx="94.439" cy="58.08" r="0.561"/><circle fill="#e6e6e6" cx="9.601" cy="60.1" r="0.561"/><circle fill="#e6e6e6" cx="11.622" cy="60.1" r="0.561"/><circle fill="#e6e6e6" cx="13.641" cy="60.1" r="0.561"/><circle fill="#e6e6e6" cx="15.661" cy="60.1" r="0.561"/><circle fill="#e6e6e6" cx="17.681" cy="60.1" r="0.561"/><circle fill="#e6e6e6" cx="19.701" cy="60.1" r="0.561"/><circle fill="#e6e6e6" cx="21.72" cy="60.1" r="0.561"/><circle fill="#e6e6e6" cx="23.741" cy="60.1" r="0.561"/><circle fill="#e6e6e6" cx="25.761" cy="60.1" r="0.561"/><circle fill="#e6e6e6" cx="27.781" cy="60.1" r="0.561"/><circle fill="#e6e6e6" cx="29.801" cy="60.1" r="0.561"/><circle fill="#e6e6e6" cx="31.82" cy="60.1" r="0.561"/><circle fill="#e6e6e6" cx="33.84" cy="60.1" r="0.561"/><circle fill="#e6e6e6" cx="35.86" cy="60.1" r="0.561"/><circle fill="#e6e6e6" cx="37.881" cy="60.1" r="0.561"/><circle fill="#e6e6e6" cx="39.901" cy="60.1" r="0.561"/><circle fill="#e6e6e6" cx="41.92" cy="60.1" r="0.561"/><circle fill="#e6e6e6" cx="43.94" cy="60.1" r="0.561"/><circle fill="#e6e6e6" cx="45.96" cy="60.1" r="0.561"/><circle fill="#e6e6e6" cx="47.98" cy="60.1" r="0.561"/><circle fill="#e6e6e6" cx="49.999" cy="60.1" r="0.561"/><circle fill="#e6e6e6" cx="52.02" cy="60.1" r="0.561"/><circle fill="#e6e6e6" cx="54.04" cy="60.1" r="0.561"/><circle fill="#e6e6e6" cx="56.06" cy="60.1" r="0.561"/><circle fill="#e6e6e6" cx="58.08" cy="60.1" r="0.561"/><circle fill="#e6e6e6" cx="60.099" cy="60.1" r="0.561"/><circle fill="#e6e6e6" cx="62.119" cy="60.1" r="0.561"/><circle fill="#e6e6e6" cx="64.139" cy="60.1" r="0.561"/><circle fill="#e6e6e6" cx="66.16" cy="60.1" r="0.561"/><circle fill="#e6e6e6" cx="68.18" cy="60.1" r="0.561"/><circle fill="#e6e6e6" cx="70.199" cy="60.1" r="0.561"/><circle fill="#e6e6e6" cx="72.219" cy="60.1" r="0.561"/><circle fill="#e6e6e6" cx="74.239" cy="60.1" r="0.561"/><circle fill="#e6e6e6" cx="76.259" cy="60.1" r="0.561"/><circle fill="#e6e6e6" cx="78.28" cy="60.1" r="0.561"/><circle fill="#e6e6e6" cx="80.299" cy="60.1" r="0.561"/><circle fill="#e6e6e6" cx="82.319" cy="60.1" r="0.561"/><circle fill="#e6e6e6" cx="84.339" cy="60.1" r="0.561"/><circle fill="#e6e6e6" cx="86.359" cy="60.1" r="0.561"/><circle fill="#e6e6e6" cx="88.378" cy="60.1" r="0.561"/><circle fill="#e6e6e6" cx="90.398" cy="60.1" r="0.561"/><circle fill="#e6e6e6" cx="92.419" cy="60.1" r="0.561"/><circle fill="#e6e6e6" cx="94.439" cy="60.1" r="0.561"/><circle fill="#e6e6e6" cx="9.601" cy="62.12" r="0.561"/><circle fill="#e6e6e6" cx="11.622" cy="62.12" r="0.561"/><circle fill="#e6e6e6" cx="13.641" cy="62.12" r="0.561"/><circle fill="#e6e6e6" cx="15.661" cy="62.12" r="0.561"/><circle fill="#e6e6e6" cx="17.681" cy="62.12" r="0.561"/><circle fill="#e6e6e6" cx="19.701" cy="62.12" r="0.561"/><circle fill="#e6e6e6" cx="21.72" cy="62.12" r="0.561"/><circle fill="#e6e6e6" cx="23.741" cy="62.12" r="0.561"/><circle fill="#e6e6e6" cx="25.761" cy="62.12" r="0.561"/><circle fill="#e6e6e6" cx="27.781" cy="62.12" r="0.561"/><circle fill="#e6e6e6" cx="29.801" cy="62.12" r="0.561"/><circle fill="#e6e6e6" cx="31.82" cy="62.12" r="0.561"/><circle fill="#e6e6e6" cx="33.84" cy="62.12" r="0.561"/><circle fill="#e6e6e6" cx="35.86" cy="62.12" r="0.561"/><circle fill="#e6e6e6" cx="37.881" cy="62.12" r="0.561"/><circle fill="#e6e6e6" cx="39.901" cy="62.12" r="0.561"/><circle fill="#e6e6e6" cx="41.92" cy="62.12" r="0.561"/><circle fill="#e6e6e6" cx="43.94" cy="62.12" r="0.561"/><circle fill="#e6e6e6" cx="45.96" cy="62.12" r="0.561"/><circle fill="#e6e6e6" cx="47.98" cy="62.12" r="0.561"/><circle fill="#e6e6e6" cx="49.999" cy="62.12" r="0.561"/><circle fill="#e6e6e6" cx="52.02" cy="62.12" r="0.561"/><circle fill="#e6e6e6" cx="54.04" cy="62.12" r="0.561"/><circle fill="#e6e6e6" cx="56.06" cy="62.12" r="0.561"/><circle fill="#e6e6e6" cx="58.08" cy="62.12" r="0.561"/><circle fill="#e6e6e6" cx="60.099" cy="62.12" r="0.561"/><circle fill="#e6e6e6" cx="62.119" cy="62.12" r="0.561"/><circle fill="#e6e6e6" cx="64.139" cy="62.12" r="0.561"/><circle fill="#e6e6e6" cx="66.16" cy="62.12" r="0.561"/><circle fill="#e6e6e6" cx="68.18" cy="62.12" r="0.561"/><circle fill="#e6e6e6" cx="70.199" cy="62.12" r="0.561"/><circle fill="#e6e6e6" cx="72.219" cy="62.12" r="0.561"/><circle fill="#e6e6e6" cx="74.239" cy="62.12" r="0.561"/><circle fill="#e6e6e6" cx="78.28" cy="62.12" r="0.561"/><circle fill="#e6e6e6" cx="11.622" cy="64.14" r="0.561"/><circle fill="#e6e6e6" cx="13.641" cy="64.14" r="0.561"/><circle fill="#e6e6e6" cx="17.681" cy="64.14" r="0.561"/><circle fill="#e6e6e6" cx="19.701" cy="64.14" r="0.561"/><circle fill="#e6e6e6" cx="21.72" cy="64.14" r="0.561"/><circle fill="#e6e6e6" cx="23.741" cy="64.14" r="0.561"/><circle fill="#e6e6e6" cx="25.761" cy="64.14" r="0.561"/><circle fill="#e6e6e6" cx="31.82" cy="64.14" r="0.561"/><circle fill="#e6e6e6" cx="33.84" cy="64.14" r="0.561"/><circle fill="#e6e6e6" cx="35.86" cy="64.14" r="0.561"/><circle fill="#e6e6e6" cx="37.881" cy="64.14" r="0.561"/><circle fill="#e6e6e6" cx="39.901" cy="64.14" r="0.561"/><circle fill="#e6e6e6" cx="41.92" cy="64.14" r="0.561"/><circle fill="#e6e6e6" cx="43.94" cy="64.14" r="0.561"/><circle fill="#e6e6e6" cx="47.98" cy="64.14" r="0.561"/><circle fill="#e6e6e6" cx="49.999" cy="64.14" r="0.561"/><circle fill="#e6e6e6" cx="54.04" cy="64.14" r="0.561"/><circle fill="#e6e6e6" cx="58.08" cy="64.14" r="0.561"/><circle fill="#e6e6e6" cx="60.099" cy="64.14" r="0.561"/><circle fill="#e6e6e6" cx="66.16" cy="64.14" r="0.561"/><circle fill="#e6e6e6" cx="68.18" cy="64.14" r="0.561"/><circle fill="#e6e6e6" cx="70.199" cy="64.14" r="0.561"/><circle fill="#e6e6e6" cx="19.701" cy="66.159" r="0.561"/><circle fill="#e6e6e6" cx="21.72" cy="66.159" r="0.561"/><circle fill="#e6e6e6" cx="23.741" cy="66.159" r="0.561"/><circle fill="#e6e6e6" cx="33.84" cy="66.159" r="0.561"/><circle fill="#e6e6e6" cx="35.86" cy="66.159" r="0.561"/><circle fill="#e6e6e6" cx="37.881" cy="66.159" r="0.561"/><circle fill="#e6e6e6" cx="39.901" cy="66.159" r="0.561"/><circle fill="#e6e6e6" cx="41.92" cy="66.159" r="0.561"/><circle fill="#e6e6e6" cx="52.02" cy="66.159" r="0.561"/><circle fill="#e6e6e6" cx="54.04" cy="66.159" r="0.561"/><circle fill="#e6e6e6" cx="35.86" cy="68.179" r="0.561"/><circle fill="#e6e6e6" cx="37.881" cy="68.179" r="0.561"/><circle fill="#e6e6e6" cx="52.02" cy="68.179" r="0.561"/><circle fill="#e6e6e6" cx="54.04" cy="68.179" r="0.561"/></g></svg>