<?xml version="1.0" encoding="UTF-8" standalone="no"?>
<!-- Created with Inkscape (http://www.inkscape.org/) -->

<svg
   width="1337.933mm"
   height="87.635094mm"
   viewBox="0 0 1337.933 87.635094"
   version="1.1"
   id="svg1"
   xml:space="preserve"
   xmlns="http://www.w3.org/2000/svg"
   xmlns:svg="http://www.w3.org/2000/svg"><defs
     id="defs1" /><g
     id="layer1"
     transform="translate(859.30306,-887.00413)"><g
       transform="matrix(0.03398312,0,0,-0.03398312,-873.30895,999.12155)"
       fill="#cccccc"
       stroke="none"
       id="g20"><path
         d="m 1447,3276 c -35,-32 -33,-28 -232,-506 C 1117,2536 994,2244 942,2120 890,1996 814,1814 773,1715 731,1616 685,1506 670,1470 427,904 404,844 414,806 c 11,-45 43,-73 90,-79 25,-4 52,-4 60,-1 22,8 63,75 96,156 28,69 72,176 162,388 22,52 58,138 80,190 22,52 55,131 72,175 18,44 40,96 48,115 18,40 61,141 177,417 45,106 118,280 162,385 45,106 90,216 101,243 11,28 24,60 29,73 5,12 12,22 17,22 4,0 23,-37 42,-82 18,-46 79,-191 135,-323 137,-323 261,-619 474,-1130 214,-514 243,-581 266,-604 19,-19 34,-24 70,-23 53,0 88,20 110,62 17,33 20,23 -67,230 -25,58 -95,224 -156,370 -61,146 -145,346 -187,445 -42,99 -175,419 -297,710 -306,737 -296,714 -332,736 -43,26 -87,24 -119,-5 z"
         id="path1" /><path
         d="m 8218,3285 c -33,-18 -52,-58 -228,-480 -76,-181 -148,-352 -160,-380 -12,-27 -72,-169 -132,-315 -61,-146 -128,-308 -150,-360 -22,-52 -57,-135 -78,-185 -21,-49 -58,-137 -83,-195 -143,-337 -217,-523 -217,-542 0,-43 36,-86 82,-99 67,-18 87,-5 130,81 38,75 158,353 158,364 0,3 12,31 26,63 37,79 93,210 110,255 8,21 47,116 88,210 40,95 131,310 201,478 70,168 154,368 187,445 34,77 69,165 80,195 10,30 21,62 24,70 9,25 13,18 415,-945 72,-170 141,-335 154,-365 13,-30 45,-107 71,-170 56,-137 124,-300 164,-390 15,-36 43,-100 60,-142 17,-43 42,-92 54,-110 19,-29 27,-33 75,-36 47,-3 57,0 82,24 52,50 44,83 -110,449 -51,121 -128,303 -171,405 -42,102 -159,381 -260,620 -100,239 -234,558 -296,709 -63,151 -124,289 -136,307 -37,53 -87,67 -140,39 z"
         id="path2" /><path
         d="m 3701,3249 c -18,-4 -43,-17 -55,-28 l -21,-22 V 2002 c 0,-658 3,-1209 7,-1223 9,-31 45,-49 99,-49 51,0 75,13 94,50 22,42 23,2376 1,2418 -22,43 -72,63 -125,51 z"
         id="path3" /><path
         d="m 5220,3249 c -14,-6 -35,-20 -47,-31 l -23,-21 V 2001 c 0,-658 3,-1205 6,-1217 8,-31 56,-54 112,-54 44,0 53,4 71,29 21,29 21,32 21,1230 v 1201 l -27,29 c -31,33 -76,45 -113,30 z"
         id="path4" /><path
         d="m 18774,3249 c -17,-5 -39,-18 -50,-30 -19,-21 -19,-52 -19,-1228 0,-929 3,-1211 12,-1227 15,-27 92,-48 125,-35 13,5 34,21 48,36 l 25,27 5,999 c 3,549 9,999 13,999 5,1 42,-45 82,-102 41,-57 94,-128 117,-158 24,-31 113,-150 198,-265 85,-115 217,-293 293,-395 76,-102 283,-380 460,-619 177,-239 340,-454 362,-477 51,-54 85,-62 145,-32 l 45,23 5,1190 c 3,655 1,1204 -3,1222 -11,45 -50,73 -101,73 -38,0 -81,-19 -98,-44 -4,-6 -8,-467 -8,-1025 V 1167 l -20,18 c -11,10 -85,106 -165,214 -159,215 -296,400 -688,926 -578,775 -666,891 -680,903 -24,20 -70,29 -103,21 z"
         id="path5" /><path
         d="m 29828,3251 c -62,-7 -69,-11 -91,-54 -19,-37 -7,-91 28,-126 l 25,-26 h 913 c 501,0 924,3 938,7 30,9 59,60 59,103 0,38 -25,81 -52,89 -31,9 -1748,16 -1820,7 z"
         id="path6" /><path
         d="m 34211,3246 c -19,-6 -44,-24 -55,-39 -21,-28 -21,-29 -24,-1203 -2,-1039 0,-1178 13,-1212 21,-50 40,-62 98,-62 63,0 84,12 97,58 6,24 10,373 10,1025 0,647 3,988 10,985 9,-3 186,-236 463,-612 73,-98 231,-312 353,-475 121,-163 319,-429 439,-591 265,-357 272,-366 312,-385 45,-22 97,-11 123,25 20,28 20,47 20,1225 0,1273 1,1241 -45,1259 -42,16 -95,6 -127,-23 l -33,-29 V 2181 c 0,-556 -3,-1011 -7,-1011 -3,0 -64,78 -134,173 -71,94 -254,341 -409,547 -154,206 -338,454 -409,550 -131,177 -550,736 -583,777 -25,31 -71,43 -112,29 z"
         id="path7" /><path
         d="m 12968,3235 c -389,-61 -760,-352 -924,-725 -84,-191 -132,-443 -114,-599 39,-345 157,-601 374,-816 177,-175 402,-297 649,-351 89,-20 382,-23 477,-5 188,35 407,135 556,255 104,83 134,123 134,178 0,29 -8,47 -33,75 -30,32 -37,35 -69,29 -23,-4 -67,-32 -125,-79 -49,-40 -120,-91 -158,-114 -204,-122 -462,-168 -726,-128 -364,54 -682,336 -812,720 l -41,120 v 195 195 l 41,120 c 188,551 720,837 1289,695 113,-28 264,-107 375,-196 148,-119 176,-128 228,-69 60,68 37,135 -77,228 -181,148 -383,243 -580,272 -119,18 -347,18 -464,0 z"
         id="path8" /><path
         d="m 16125,3243 c -91,-11 -197,-38 -284,-72 -341,-133 -616,-421 -739,-773 -41,-115 -59,-210 -68,-343 -35,-569 330,-1093 886,-1273 143,-46 200,-55 375,-55 178,0 245,9 385,55 206,67 371,168 520,317 131,131 206,246 283,431 112,267 109,652 -6,934 -70,174 -168,318 -302,444 -179,169 -416,289 -646,327 -86,14 -322,19 -404,8 z m 412,-232 c 465,-96 817,-540 815,-1031 -1,-97 -6,-136 -35,-250 -50,-199 -120,-324 -261,-468 -224,-230 -500,-338 -820,-319 -271,16 -466,102 -659,290 -191,187 -291,388 -318,639 -35,334 68,624 307,864 93,94 171,149 287,205 195,93 445,119 684,70 z"
         id="path9" /><path
         d="m 22408,3235 c -345,-65 -553,-297 -550,-611 3,-221 125,-396 360,-513 64,-32 267,-121 277,-121 3,0 78,-27 168,-59 408,-149 542,-233 618,-386 30,-62 34,-80 37,-168 4,-90 2,-102 -24,-154 -60,-124 -204,-220 -388,-259 -109,-23 -242,-28 -352,-14 -206,26 -322,79 -599,275 -57,40 -77,43 -121,16 -44,-27 -69,-84 -54,-121 49,-119 409,-321 668,-376 118,-24 412,-22 514,5 183,48 300,112 414,225 200,201 227,466 73,722 -71,118 -202,223 -377,305 -92,42 -285,120 -347,139 -77,24 -370,142 -426,172 -84,44 -160,116 -194,184 -27,52 -30,69 -29,144 1,101 28,172 93,243 102,111 344,172 578,147 197,-21 359,-85 500,-198 76,-60 107,-76 139,-68 28,7 94,80 94,104 0,10 -13,38 -28,63 -68,106 -320,250 -520,296 -97,22 -423,27 -524,8 z"
         id="path10" /><path
         d="m 24681,3224 -31,-26 v -809 c 0,-546 4,-834 11,-882 55,-354 358,-676 719,-764 102,-25 352,-22 455,6 282,76 520,282 638,551 69,158 69,154 74,1035 2,434 2,804 -2,822 -3,18 -17,46 -31,63 -21,24 -34,30 -65,30 -49,0 -91,-20 -107,-52 -9,-17 -13,-226 -15,-833 -3,-799 -3,-811 -25,-894 -51,-190 -193,-364 -374,-454 -93,-47 -169,-66 -288,-74 -228,-14 -396,51 -560,217 -87,88 -139,172 -178,285 l -27,80 -5,832 -5,832 -29,30 c -40,42 -109,44 -155,5 z"
         id="path11" /><path
         d="m 27849,3221 -29,-30 2,-1206 3,-1207 28,-24 c 22,-18 40,-24 78,-24 53,0 84,20 94,62 3,13 4,560 3,1216 l -3,1194 -28,24 c -42,36 -109,34 -148,-5 z"
         id="path12" /><path
         d="m 32641,3224 -31,-26 V 1990 c 0,-1185 0,-1208 20,-1232 23,-29 86,-42 131,-26 15,5 38,25 49,43 20,32 20,45 20,1218 v 1186 l -31,36 c -28,31 -37,35 -79,35 -38,0 -55,-6 -79,-26 z"
         id="path13" /><path
         d="m 38272,3234 c -240,-40 -453,-155 -648,-348 -161,-159 -273,-344 -324,-529 -67,-245 -76,-392 -35,-592 57,-282 167,-487 366,-682 108,-105 172,-152 289,-212 210,-108 356,-144 590,-144 186,0 249,10 400,60 205,69 348,158 500,312 127,127 198,229 261,371 89,203 140,506 95,574 -25,40 -79,60 -120,46 -65,-21 -76,-43 -86,-181 -14,-199 -88,-398 -203,-546 -96,-124 -248,-253 -372,-315 -186,-94 -426,-128 -656,-93 -174,26 -320,91 -462,205 -420,337 -528,906 -259,1360 67,113 217,274 323,345 297,199 710,228 1034,71 85,-41 125,-68 273,-186 77,-61 117,-66 162,-21 76,76 45,146 -121,271 -160,120 -355,207 -525,234 -124,20 -366,20 -482,0 z"
         id="path14" /><path
         d="m 30639,2911 -39,-39 3,-1042 2,-1042 33,-29 c 26,-24 41,-29 81,-29 33,0 56,6 72,19 l 24,19 3,1054 c 2,788 0,1059 -9,1075 -14,26 -66,53 -104,53 -18,0 -40,-13 -66,-39 z"
         id="path15" /><path
         d="m 38380,2090 c -47,-12 -80,-52 -80,-98 0,-35 20,-77 44,-94 6,-4 249,-8 540,-8 h 529 l 34,26 c 37,28 42,54 19,109 -30,72 -13,70 -561,72 -269,1 -506,-2 -525,-7 z"
         id="path16" /><path
         d="m 1035,1578 c -33,-18 -45,-40 -45,-83 0,-48 19,-79 62,-101 28,-14 87,-16 463,-17 473,-1 455,-3 496,60 26,39 24,64 -11,111 l -30,42 h -458 c -311,-1 -463,-4 -477,-12 z"
         id="path17" /><path
         d="m 7786,1571 c -42,-46 -40,-128 4,-164 27,-23 35,-24 276,-30 374,-9 625,-2 663,18 67,34 77,102 25,165 l -26,30 h -462 c -439,0 -464,-1 -480,-19 z"
         id="path18" /><path
         d="m 5525,932 c -34,-8 -75,-62 -75,-101 0,-15 11,-43 25,-63 23,-35 28,-37 97,-43 40,-4 265,-5 500,-3 l 427,3 29,28 c 17,16 32,41 35,55 7,32 -26,106 -51,118 -20,10 -944,15 -987,6 z"
         id="path19" /><path
         d="m 28198,933 c -31,-5 -65,-47 -74,-92 -8,-37 27,-98 63,-112 27,-10 783,-12 911,-2 72,5 87,10 113,34 42,39 40,87 -5,137 l -34,37 -474,1 c -260,1 -485,0 -500,-3 z"
         id="path20" /></g></g></svg>
